<svg width="414" height="413" viewBox="0 0 414 413" fill="none" xmlns="http://www.w3.org/2000/svg">
<g clip-path="url(#clip0_14701_25427)">
<path d="M259.73 55.8188L308.644 70.1519L357.548 55.8188L343.227 104.776L357.548 153.723L308.644 139.39L259.73 153.723L274.051 104.776L259.73 55.8188Z" fill="#8A9FF8"/>
<path d="M56.4521 55.8188L105.356 70.1519L154.27 55.8188L139.949 104.776L154.27 153.723L105.356 139.39L56.4521 153.723L70.7725 104.776L56.4521 55.8188Z" fill="#8A9FF8"/>
<path d="M250.355 163.107L206.995 83.7603L163.635 163.107L84.358 206.505L163.635 249.904L206.995 329.251L250.355 249.904L329.631 206.505L250.355 163.107ZM206.995 234.415C191.593 234.415 179.11 221.921 179.11 206.505C179.11 191.09 191.593 178.596 206.995 178.596C222.397 178.596 234.88 191.09 234.88 206.505C234.88 221.921 222.397 234.415 206.995 234.415Z" fill="#8A9FF8"/>
<path d="M56.4521 259.277L105.356 273.62L154.27 259.277L139.949 308.234L154.27 357.191L105.356 342.848L56.4521 357.191L70.7725 308.234L56.4521 259.277Z" fill="#8A9FF8"/>
<path d="M259.73 259.277L308.644 273.62L357.548 259.277L343.227 308.234L357.548 357.191L308.644 342.848L259.73 357.191L274.051 308.234L259.73 259.277Z" fill="#8A9FF8"/>
<path d="M358.23 178.596L386.115 186.771L414 178.596L405.832 206.505L414 234.415L386.115 226.239L358.23 234.415L366.398 206.505L358.23 178.596Z" fill="#8A9FF8"/>
<path d="M179.12 0L207.005 8.1753L234.88 0L226.722 27.9095L234.88 55.819L207.005 47.6437L179.12 55.819L187.288 27.9095L179.12 0Z" fill="#8A9FF8"/>
<path d="M0 178.596L27.8849 186.771L55.7697 178.596L47.6017 206.505L55.7697 234.415L27.8849 226.239L0 234.415L8.16808 206.505L0 178.596Z" fill="#8A9FF8"/>
<path d="M179.12 357.191L207.005 365.367L234.88 357.191L226.722 385.101L234.88 413L207.005 404.835L179.12 413L187.288 385.101L179.12 357.191Z" fill="#8A9FF8"/>
</g>
<defs>
<clipPath id="clip0_14701_25427">
<rect width="414" height="413" fill="white"/>
</clipPath>
</defs>
</svg>
