<svg  width="138" height="186" viewBox="0 0 138 186" fill="none" xmlns="http://www.w3.org/2000/svg">
<path d="M41.7856 157.347C41.3021 157.347 40.8301 157.324 40.3466 157.312C40.3466 157.324 40.3466 157.335 40.3466 157.347C40.3466 173.176 53.1825 186 69 186C84.8176 186 97.6535 173.164 97.6535 157.347C97.6535 157.335 97.6535 157.324 97.6535 157.312C97.17 157.324 96.698 157.347 96.2145 157.347H41.7856Z" fill="#8A9FF8"/>
<path d="M96.226 73.7921C96.7095 73.7921 97.1815 73.8152 97.665 73.8267C97.665 73.8152 97.665 73.8036 97.665 73.7921C97.665 57.9631 84.8291 45.1387 69.0116 45.1387C53.194 45.1387 40.3581 57.9746 40.3581 73.7921C40.3581 73.8036 40.3581 73.8152 40.3581 73.8267C40.8416 73.8152 41.3136 73.7921 41.7971 73.7921H96.2375H96.226Z" fill="#8A9FF8"/>
<path d="M97.665 73.8267C97.642 89.6327 84.8175 102.446 69.0115 102.446C53.2055 102.446 40.3696 89.6327 40.3581 73.8267C17.9441 74.5865 0.00836182 92.9827 0.00836182 115.569C0.00836182 138.156 17.9441 156.552 40.3465 157.312C40.3696 141.506 53.194 128.693 69 128.693C84.806 128.693 97.642 141.506 97.6535 157.312C120.056 156.552 137.992 138.156 137.992 115.569C137.992 92.9827 120.056 74.5865 97.6535 73.8267H97.665Z" fill="#8A9FF8"/>
<path d="M69.0115 28.665C76.9271 28.665 83.344 22.2481 83.344 14.3325C83.344 6.41687 76.9271 0 69.0115 0C61.0959 0 54.679 6.41687 54.679 14.3325C54.679 22.2481 61.0959 28.665 69.0115 28.665Z" fill="#8A9FF8"/>
</svg>
